<?xml version="1.0" standalone="no"?>
<!DOCTYPE svg PUBLIC "-//W3C//DTD SVG 20010904//EN"
 "http://www.w3.org/TR/2001/REC-SVG-20010904/DTD/svg10.dtd">
<svg version="1.0" xmlns="http://www.w3.org/2000/svg"
 width="600.000000pt" height="600.000000pt" viewBox="0 0 600.000000 600.000000"
 preserveAspectRatio="xMidYMid meet">
<metadata>
Created by potrace 1.14, written by Peter Selinger 2001-2017
</metadata>
<g transform="translate(0.000000,600.000000) scale(0.100000,-0.100000)"
fill="#000000" stroke="none">
<path d="M440 5993 c-224 -34 -398 -204 -430 -418 -7 -47 -10 -894 -8 -2620 3
-2549 3 -2550 24 -2606 66 -181 218 -311 394 -339 43 -6 933 -10 2590 -10
2756 0 2597 -3 2717 57 72 36 180 144 216 216 61 122 58 -44 55 2764 -3 2486
-4 2570 -22 2617 -47 123 -147 238 -249 289 -120 60 41 57 -2727 55 -1394 0
-2546 -2 -2560 -5z m2622 -845 l3 -213 105 -6 c101 -6 263 -30 325 -49 17 -5
71 -21 120 -36 139 -42 136 -39 118 -83 -8 -20 -16 -37 -18 -39 -1 -2 -49 12
-106 31 -204 68 -296 82 -554 82 -203 0 -243 -3 -340 -23 -352 -75 -642 -231
-896 -482 -113 -112 -176 -189 -253 -313 -27 -42 -50 -77 -53 -77 -3 0 -21 9
-39 21 l-34 20 16 32 c52 101 213 306 320 408 217 205 506 370 779 444 86 24
322 65 373 65 l42 0 0 215 0 215 45 0 45 0 2 -212z m240 -484 c243 -40 453
-123 648 -255 83 -56 230 -177 230 -188 0 -4 -100 -106 -222 -228 l-223 -223
-77 63 c-172 139 -379 212 -603 211 -207 0 -394 -60 -559 -178 -71 -51 -188
-170 -235 -239 -198 -290 -220 -679 -58 -987 92 -174 266 -343 437 -423 350
-165 767 -106 1055 147 l40 35 225 -225 225 -225 -50 -46 c-208 -188 -457
-317 -745 -385 -85 -20 -121 -22 -335 -22 -218 -1 -249 2 -335 23 -327 80
-576 217 -796 437 -228 228 -373 501 -441 829 -26 127 -26 484 0 599 52 232
107 369 218 549 69 110 124 179 222 278 235 238 514 384 857 449 127 23 395
26 522 4z m-1995 -1729 c35 -417 197 -770 495 -1080 l120 -125 -85 -98 c-46
-53 -112 -131 -147 -172 -34 -41 -68 -78 -74 -82 -8 -4 -24 4 -41 22 l-27 29
23 29 c13 16 68 82 122 145 53 64 97 119 97 124 0 5 -21 29 -46 53 -115 112
-260 316 -342 481 -86 175 -107 238 -174 529 -6 25 -13 100 -16 168 l-5 123
44 -3 44 -3 12 -140z m3027 -1134 l27 -28 -63 -58 c-71 -66 -198 -162 -258
-196 -22 -13 -40 -29 -40 -37 0 -8 35 -76 79 -151 98 -169 121 -210 121 -216
0 -3 -17 -13 -38 -24 l-37 -19 -106 182 c-115 199 -106 191 -186 155 -134 -60
-154 -67 -273 -102 -181 -53 -258 -62 -510 -62 -187 0 -252 4 -320 18 -148 31
-318 82 -380 114 -14 7 -30 13 -36 13 -28 0 -36 28 -17 64 l18 35 70 -30 c39
-16 108 -41 155 -54 47 -14 99 -30 115 -35 34 -11 220 -35 340 -45 80 -7 334
15 420 36 22 6 65 16 95 23 235 56 534 219 723 393 32 29 62 53 66 53 4 0 20
-13 35 -29z"/>
</g>
</svg>
